<?xml version="1.0" standalone="no"?>
<!DOCTYPE svg PUBLIC "-//W3C//DTD SVG 20010904//EN"
 "http://www.w3.org/TR/2001/REC-SVG-20010904/DTD/svg10.dtd">
<svg version="1.0" xmlns="http://www.w3.org/2000/svg"
 width="1024.000000pt" height="1024.000000pt" viewBox="0 0 1024.000000 1024.000000"
 preserveAspectRatio="xMidYMid meet">
<metadata>
Created by potrace 1.14, written by Peter Selinger 2001-2017
</metadata>
<g transform="translate(0.000000,1024.000000) scale(0.100000,-0.100000)"
fill="#000000" stroke="none">
<path d="M7075 9992 c-130 -12 -357 -72 -510 -133 -549 -221 -954 -585 -1214
-1090 -99 -193 -185 -444 -206 -599 -4 -30 -9 -64 -12 -75 -7 -31 -12 -315 -6
-364 l5 -44 162 6 c173 6 300 30 446 82 170 61 382 184 550 319 125 100 318
299 433 446 299 382 463 859 450 1312 -5 157 1 150 -98 140z"/>
<path d="M6810 7680 c-25 -4 -70 -10 -100 -13 -30 -4 -80 -11 -110 -17 -30 -7
-68 -14 -85 -16 -41 -7 -356 -94 -376 -105 -9 -4 -27 -10 -40 -13 -13 -3 -96
-31 -184 -64 -163 -60 -441 -153 -575 -193 -96 -28 -200 -30 -305 -4 -79 19
-390 122 -675 224 -260 93 -519 159 -695 176 -76 8 -245 8 -312 0 -24 -3 -64
-7 -90 -10 -640 -72 -1273 -443 -1669 -980 -103 -140 -116 -161 -256 -413 -10
-18 -18 -37 -18 -43 0 -6 -9 -24 -21 -40 -11 -16 -18 -29 -15 -29 2 0 -8 -28
-24 -63 -78 -171 -175 -517 -204 -727 -3 -19 -8 -57 -12 -85 -3 -27 -8 -58
-10 -67 -25 -136 -25 -766 1 -958 3 -19 7 -55 10 -79 8 -81 16 -132 60 -386 3
-16 17 -82 31 -145 95 -422 257 -900 430 -1267 25 -54 57 -123 71 -153 14 -30
34 -67 45 -82 11 -16 16 -28 12 -28 -3 0 -2 -6 3 -12 6 -7 30 -49 53 -93 115
-212 258 -432 453 -695 202 -272 327 -421 486 -578 277 -275 511 -416 775
-465 76 -15 287 -16 346 -3 14 3 50 11 80 17 101 20 296 79 431 130 398 151
577 199 827 224 120 12 368 6 432 -10 8 -2 35 -7 60 -10 25 -3 70 -12 100 -20
30 -8 67 -16 81 -19 34 -6 294 -92 334 -110 128 -60 473 -166 592 -182 26 -3
69 -10 96 -14 55 -8 234 -6 292 4 213 38 403 121 576 251 216 162 394 356 667
723 242 325 410 597 554 892 44 91 84 173 89 182 51 101 212 532 200 536 -38
13 -279 143 -340 184 -260 175 -411 320 -639 613 -55 71 -172 292 -217 410
-69 180 -114 362 -130 523 -3 28 -7 76 -10 106 -14 136 -4 399 19 536 3 19 8
47 10 63 3 15 7 35 10 45 3 9 7 29 10 43 29 172 148 448 271 633 109 164 279
350 420 461 28 22 52 43 55 46 12 14 161 119 218 153 34 22 62 41 62 43 0 53
-291 362 -460 490 -152 115 -358 231 -515 291 -16 6 -43 17 -60 23 -16 7 -32
13 -35 14 -3 1 -50 15 -105 32 -128 40 -132 41 -280 71 -99 20 -151 29 -230
38 -22 3 -56 7 -75 10 -57 9 -341 11 -390 4z"/>
</g>
</svg>
